<svg width="533" height="532" fill="none" xmlns="http://www.w3.org/2000/svg"><path d="M455.84 379.68c0 42-34.16 76.16-76.16 76.16H152.32c-42 0-76.16-34.16-76.16-76.16V152.32c0-42 34.16-76.16 76.16-76.16h66.078V0H152.32C68.32 0 0 68.32 0 152.32v226.8c0 84 68.32 152.32 152.32 152.32h226.8c84 0 152.32-68.32 152.32-152.32V313.6h-75.602l.002 66.08Z" fill="#AE8BF8"/><path d="M493.92 0H302.96v76.16h99.121l-210.56 210.56c-15.121 14.559-15.121 39.199 0 53.762 7.282 7.281 17.359 11.199 26.879 11.199s19.602-3.922 26.879-11.199l210.56-210.56v99.121h76.16l.004-190.96c0-21.277-16.801-38.078-38.078-38.078L493.92 0Z" fill="#AE8BF8"/></svg>